<svg width="160" height="158" viewBox="0 0 160 158" fill="none" xmlns="http://www.w3.org/2000/svg">
<path d="M107.552 96.7287L99.0664 80.2287C98.8953 79.8959 99.1369 79.5 99.511 79.5H143.473C143.821 79.5 144.063 79.8475 143.941 80.1741L137.813 96.6741C137.74 96.87 137.553 97 137.344 97H107.997C107.809 97 107.638 96.8953 107.552 96.7287Z" fill="white" stroke="white"/>
<path d="M1.05343 131.276L52.7444 27.8944C52.9287 27.5259 53.4546 27.5259 53.6388 27.8944L105.33 131.276C105.496 131.609 105.254 132 104.883 132H85.9996C85.8108 132 85.638 131.894 85.5531 131.725L53.1446 67.399C52.9586 67.03 52.4307 67.033 52.249 67.4041L29.5441 113.78C29.3814 114.112 29.6233 114.5 29.9931 114.5H57.3786C57.5701 114.5 57.7447 114.609 57.8284 114.782L65.8427 131.282C66.004 131.614 65.7621 132 65.3929 132H1.50065C1.12895 132 0.887206 131.609 1.05343 131.276Z" fill="white" stroke="white"/>
<mask id="mask0_352_1213" style="mask-type:alpha" maskUnits="userSpaceOnUse" x="50" y="-10" width="115" height="72">
<path d="M50.1917 -10H164.192V62H107.192H92.9417L84.6917 51.5L76.6917 35L50.1917 -10Z" fill="#D9D9D9"/>
</mask>
<g mask="url(#mask0_352_1213)">
<path fill-rule="evenodd" clip-rule="evenodd" d="M106.192 114C125.522 114 141.192 98.33 141.192 79C141.192 59.67 125.522 44 106.192 44C86.8617 44 71.1917 59.67 71.1917 79C71.1917 98.33 86.8617 114 106.192 114ZM106.192 132C135.463 132 159.192 108.271 159.192 79C159.192 49.7289 135.463 26 106.192 26C76.9206 26 53.1917 49.7289 53.1917 79C53.1917 108.271 76.9206 132 106.192 132Z" fill="white"/>
</g>
<mask id="mask1_352_1213" style="mask-type:alpha" maskUnits="userSpaceOnUse" x="114" y="79" width="50" height="60">
<path d="M123.192 79H163.192V139H123.192V129L119.192 120.5L114.692 112L123.192 104V79Z" fill="#D9D9D9"/>
</mask>
<g mask="url(#mask1_352_1213)">
<path fill-rule="evenodd" clip-rule="evenodd" d="M106.192 114C118.729 114 129.727 107.408 135.908 97.5C139.257 92.1326 141.192 85.7923 141.192 79C141.192 59.67 125.522 44 106.192 44C86.8617 44 71.1917 59.67 71.1917 79C71.1917 98.33 86.8617 114 106.192 114ZM106.192 132C135.463 132 159.192 108.271 159.192 79C159.192 49.7289 135.463 26 106.192 26C76.9206 26 53.1917 49.7289 53.1917 79C53.1917 108.271 76.9206 132 106.192 132Z" fill="white"/>
</g>
</svg>
