<svg width="24" height="24" viewBox="0 0 24 24" fill="none" xmlns="http://www.w3.org/2000/svg">
<path d="M0.157917 19.8414L7.91156 4.33415C7.9392 4.27887 8.01809 4.27887 8.04573 4.33415L15.7994 19.8414C15.8243 19.8913 15.788 19.95 15.7323 19.95H12.8998C12.8715 19.95 12.8456 19.934 12.8329 19.9087L7.97159 10.2598C7.9437 10.2045 7.8645 10.2049 7.83725 10.2606L4.43151 17.217C4.40712 17.2668 4.44339 17.325 4.49887 17.325H8.6067C8.63541 17.325 8.66161 17.3414 8.67416 17.3672L9.8763 19.8422C9.9005 19.892 9.86422 19.95 9.80884 19.95H0.224999C0.169245 19.95 0.132983 19.8913 0.157917 19.8414Z" fill="#1E90FF"/>
<path fill-rule="evenodd" clip-rule="evenodd" d="M14.8037 12L16.1537 14.625H20.4764C19.7853 15.8196 18.6371 16.7167 17.2709 17.0769L17.8787 18.225L18.4787 19.5V19.5322C21.6186 18.4696 23.8787 15.4987 23.8787 12H21.6287H21.1787H14.8037Z" fill="white"/>
<path fill-rule="evenodd" clip-rule="evenodd" d="M23.461 9.45C22.3983 6.31012 19.4275 4.05 15.9287 4.05C14.2898 4.05 12.7667 4.54594 11.5014 5.39593L11.5037 5.4L12.6974 7.86195C13.5884 7.16524 14.7101 6.75 15.9287 6.75C17.9028 6.75 19.6224 7.8395 20.519 9.45H23.461Z" fill="white"/>
</svg>
